Coordinates
version=1
nRows=43
nColumns=12
inDegrees=yes

Units are S.I. units (second, meters, Newtons, ...)
Angles are in degrees

endheader
time	SC_y	SC_z	SC_x	AC_y	AC_z	AC_x	GH_y	GH_z	GH_yy	EL_x	PS_y
       0.0              -33.09          38.22          74.24          43.08         -13.24         -5.812          140.9         -3.652         -109.5          6.175           90.7
 0.0007412              -33.09          38.22          74.23          43.08         -13.24         -5.812          140.8         -3.641         -109.5          6.185          90.71
  0.001482              -33.09          38.22          74.22          43.08         -13.24         -5.811          140.8         -3.629         -109.5          6.196          90.72
  0.002224               -33.1          38.22          74.21          43.09         -13.24         -5.811          140.8         -3.617         -109.5          6.208          90.73
  0.002965               -33.1          38.21           74.2          43.09         -13.24          -5.81          140.7         -3.604         -109.5          6.221          90.75
  0.003706              -33.11          38.21          74.18          43.09         -13.24         -5.809          140.7          -3.59         -109.5          6.234          90.76
  0.004447              -33.11          38.21          74.17           43.1         -13.25         -5.808          140.6         -3.575         -109.4          6.248          90.77
  0.005188              -33.12           38.2          74.16           43.1         -13.25         -5.807          140.6         -3.559         -109.4          6.264          90.79
  0.005929              -33.12           38.2          74.14          43.11         -13.25         -5.806          140.5         -3.542         -109.4           6.28           90.8
  0.006671              -33.13           38.2          74.13          43.11         -13.25         -5.805          140.5         -3.524         -109.4          6.298          90.82
  0.007412              -33.13          38.19          74.11          43.12         -13.25         -5.804          140.4         -3.505         -109.3          6.317          90.83
  0.008153              -33.14          38.19          74.09          43.12         -13.25         -5.803          140.4         -3.484         -109.3          6.337          90.85
  0.008894              -33.15          38.18          74.07          43.13         -13.25         -5.802          140.3         -3.461         -109.3          6.359          90.87
  0.009635              -33.16          38.17          74.05          43.14         -13.25         -5.801          140.2         -3.436         -109.3          6.383          90.89
   0.01038              -33.16          38.17          74.03          43.14         -13.26         -5.799          140.1          -3.41         -109.2          6.408          90.92
   0.01112              -33.17          38.16           74.0          43.15         -13.26         -5.798          140.1         -3.381         -109.2          6.436          90.94
   0.01186              -33.18          38.15          73.98          43.16         -13.26         -5.796          140.0          -3.35         -109.1          6.466          90.97
    0.0126              -33.19          38.15          73.95          43.17         -13.26         -5.794          139.9         -3.316         -109.1          6.499           91.0
   0.01334              -33.21          38.14          73.91          43.18         -13.27         -5.792          139.8         -3.278         -109.0          6.535          91.03
   0.01408              -33.22          38.13          73.88          43.19         -13.27          -5.79          139.6         -3.237         -109.0          6.575          91.07
   0.01482              -33.23          38.12          73.84           43.2         -13.27         -5.787          139.5         -3.193         -108.9          6.618          91.11
   0.01556              -33.25          38.11           73.8          43.22         -13.27         -5.785          139.4         -3.143         -108.9          6.665          91.15
   0.01631              -33.27          38.09          73.75          43.23         -13.28         -5.782          139.2         -3.089         -108.8          6.718           91.2
   0.01705              -33.29          38.08           73.7          43.25         -13.28         -5.778          139.0         -3.029         -108.7          6.776          91.25
   0.01779              -33.31          38.06          73.64          43.27         -13.29         -5.775          138.8         -2.962         -108.6          6.841          91.31
   0.01853              -33.33          38.05          73.57          43.29         -13.29          -5.77          138.6         -2.887         -108.5          6.913          91.38
   0.01927              -33.36          38.03           73.5          43.31          -13.3         -5.766          138.3         -2.803         -108.4          6.994          91.45
   0.02001              -33.39          38.01          73.42          43.34          -13.3         -5.761          138.1         -2.709         -108.3          7.085          91.54
   0.02075              -33.43          37.98          73.33          43.37         -13.31         -5.755          137.7         -2.602         -108.1          7.188          91.63
   0.02149              -33.47          37.95          73.22           43.4         -13.32         -5.748          137.4         -2.481         -108.0          7.305          91.74
   0.02224              -33.51          37.92           73.1          43.44         -13.33         -5.741          137.0         -2.343         -107.8          7.438          91.86
   0.02298              -33.56          37.88          72.96          43.49         -13.34         -5.732          136.5         -2.185         -107.6          7.591           92.0
   0.02372              -33.62          37.84           72.8          43.54         -13.35         -5.722          136.0         -2.002         -107.3          7.767          92.16
   0.02446              -33.69          37.79          72.62           43.6         -13.36          -5.71          135.3         -1.789         -107.0          7.973          92.35
    0.0252              -33.77          37.73           72.4          43.66         -13.38         -5.697          134.6         -1.541         -106.7          8.213          92.57
   0.02594              -33.87          37.67          72.15          43.75          -13.4         -5.681          133.7         -1.248         -106.3          8.496          92.83
   0.02668              -33.98          37.59          71.85          43.84         -13.42         -5.661          132.7        -0.8993         -105.8          8.832          93.14
   0.02742              -34.11          37.49          71.48          43.96         -13.45         -5.639          131.4        -0.4817         -105.3          9.235          93.51
   0.02816              -34.28          37.37          71.04           44.1         -13.48         -5.611          129.9        0.02347         -104.6          9.723          93.95
   0.02891              -34.48          37.23          70.51          44.27         -13.52         -5.577          128.1         0.6406         -103.8          10.32           94.5
   0.02965              -34.73          37.05          69.85          44.49         -13.57         -5.535          125.8          1.402         -102.8          11.05          95.17
   0.03039              -35.03          36.83          69.02          44.75         -13.63         -5.483          123.0          2.352         -101.5          11.97          96.01
   0.03113              -35.42          36.55          67.98          45.08         -13.71         -5.418          119.4          3.549         -99.87          13.13          97.07
